<?xml version="1.0" encoding="UTF-8" standalone="no"?>
<!DOCTYPE svg PUBLIC "-//W3C//DTD SVG 1.1//EN"
 "http://www.w3.org/Graphics/SVG/1.1/DTD/svg11.dtd">
<!-- Generated by graphviz version 2.36.0 (20140111.2315)
 -->
<!-- Title: model Pages: 1 -->
<svg width="1159pt" height="514pt"
 viewBox="0.00 0.00 1159.24 514.00" xmlns="http://www.w3.org/2000/svg" xmlns:xlink="http://www.w3.org/1999/xlink">
<g id="graph0" class="graph" transform="scale(1 1) rotate(0) translate(4 510)">
<title>model</title>
<polygon fill="white" stroke="none" points="-4,4 -4,-510 1155.24,-510 1155.24,4 -4,4"/>
<!-- USER -->
<g id="node1" class="node"><title>USER</title>
<path fill="none" stroke="black" d="M478.927,-38C478.927,-38 448.927,-38 448.927,-38 442.927,-38 436.927,-32 436.927,-26 436.927,-26 436.927,-12 436.927,-12 436.927,-6 442.927,-0 448.927,-0 448.927,-0 478.927,-0 478.927,-0 484.927,-0 490.927,-6 490.927,-12 490.927,-12 490.927,-26 490.927,-26 490.927,-32 484.927,-38 478.927,-38"/>
<text text-anchor="middle" x="463.927" y="-22.8" font-family="Times,serif" font-size="14.00">USER</text>
<text text-anchor="middle" x="463.927" y="-7.8" font-family="Times,serif" font-size="14.00">name</text>
</g>
<!-- CHARACTER -->
<g id="node2" class="node"><title>CHARACTER</title>
<path fill="none" stroke="black" d="M755.427,-302C755.427,-302 682.427,-302 682.427,-302 676.427,-302 670.427,-296 670.427,-290 670.427,-290 670.427,-276 670.427,-276 670.427,-270 676.427,-264 682.427,-264 682.427,-264 755.427,-264 755.427,-264 761.427,-264 767.427,-270 767.427,-276 767.427,-276 767.427,-290 767.427,-290 767.427,-296 761.427,-302 755.427,-302"/>
<text text-anchor="middle" x="718.927" y="-286.8" font-family="Times,serif" font-size="14.00">CHARACTER</text>
<text text-anchor="middle" x="718.927" y="-271.8" font-family="Times,serif" font-size="14.00">name</text>
</g>
<!-- CHARACTER&#45;&gt;USER -->
<g id="edge1" class="edge"><title>CHARACTER&#45;&gt;USER</title>
<path fill="none" stroke="black" d="M701.4,-263.992C656.999,-218.372 539.986,-98.1473 488.657,-45.4088"/>
<polygon fill="black" stroke="black" points="491.06,-42.8594 481.577,-38.1343 486.043,-47.7417 491.06,-42.8594"/>
<text text-anchor="middle" x="670.427" y="-143.3" font-family="Times,serif" font-size="14.00">owned_by</text>
</g>
<!-- CAMPAIGN -->
<g id="node3" class="node"><title>CAMPAIGN</title>
<path fill="none" stroke="black" d="M415.177,-166C415.177,-166 350.677,-166 350.677,-166 344.677,-166 338.677,-160 338.677,-154 338.677,-154 338.677,-140 338.677,-140 338.677,-134 344.677,-128 350.677,-128 350.677,-128 415.177,-128 415.177,-128 421.177,-128 427.177,-134 427.177,-140 427.177,-140 427.177,-154 427.177,-154 427.177,-160 421.177,-166 415.177,-166"/>
<text text-anchor="middle" x="382.927" y="-150.8" font-family="Times,serif" font-size="14.00">CAMPAIGN</text>
<text text-anchor="middle" x="382.927" y="-135.8" font-family="Times,serif" font-size="14.00">name</text>
</g>
<!-- CHARACTER&#45;&gt;CAMPAIGN -->
<g id="edge2" class="edge"><title>CHARACTER&#45;&gt;CAMPAIGN</title>
<path fill="none" stroke="black" d="M679.446,-263.905C673.275,-261.191 666.948,-258.476 660.927,-256 639.855,-247.336 633.102,-248.588 612.927,-238 601.901,-232.213 601.562,-226.438 589.927,-222 528.016,-198.384 501.873,-232.234 441.927,-204 427.083,-197.008 413.559,-184.828 403.216,-173.609"/>
<polygon fill="black" stroke="black" points="405.819,-171.268 396.586,-166.071 400.562,-175.891 405.819,-171.268"/>
<text text-anchor="middle" x="635.927" y="-226.3" font-family="Times,serif" font-size="14.00">plays_in</text>
</g>
<!-- ASPECT -->
<g id="node4" class="node"><title>ASPECT</title>
<path fill="none" stroke="black" d="M927.177,-166C927.177,-166 884.677,-166 884.677,-166 878.677,-166 872.677,-160 872.677,-154 872.677,-154 872.677,-140 872.677,-140 872.677,-134 878.677,-128 884.677,-128 884.677,-128 927.177,-128 927.177,-128 933.177,-128 939.177,-134 939.177,-140 939.177,-140 939.177,-154 939.177,-154 939.177,-160 933.177,-166 927.177,-166"/>
<text text-anchor="middle" x="905.927" y="-150.8" font-family="Times,serif" font-size="14.00">ASPECT</text>
<text text-anchor="middle" x="905.927" y="-135.8" font-family="Times,serif" font-size="14.00">name</text>
</g>
<!-- CHARACTER&#45;&gt;ASPECT -->
<g id="edge3" class="edge"><title>CHARACTER&#45;&gt;ASPECT</title>
<path fill="none" stroke="black" d="M708.54,-263.729C702.824,-251.012 698.439,-234.212 706.927,-222 716.205,-208.652 807.191,-178.561 862.871,-161.14"/>
<polygon fill="black" stroke="black" points="863.985,-164.459 872.493,-158.146 861.905,-157.776 863.985,-164.459"/>
<text text-anchor="middle" x="755.927" y="-226.3" font-family="Times,serif" font-size="14.00">has_high_concept</text>
</g>
<!-- CHARACTER&#45;&gt;ASPECT -->
<g id="edge4" class="edge"><title>CHARACTER&#45;&gt;ASPECT</title>
<path fill="none" stroke="black" d="M759.525,-263.881C774.292,-256.613 790.812,-247.665 804.927,-238 832.984,-218.789 861.61,-192.521 881.188,-173.323"/>
<polygon fill="black" stroke="black" points="883.85,-175.613 888.484,-166.085 878.92,-170.644 883.85,-175.613"/>
<text text-anchor="middle" x="857.927" y="-226.3" font-family="Times,serif" font-size="14.00">has_trouble</text>
</g>
<!-- CAMPAIGN&#45;&gt;USER -->
<g id="edge5" class="edge"><title>CAMPAIGN&#45;&gt;USER</title>
<path fill="none" stroke="black" d="M380.183,-127.694C378.266,-108.167 378.24,-77.1903 392.927,-56 401.083,-44.2331 414.264,-36.0944 427.069,-30.5743"/>
<polygon fill="black" stroke="black" points="428.635,-33.7211 436.697,-26.8468 426.108,-27.1932 428.635,-33.7211"/>
<text text-anchor="middle" x="421.427" y="-60.3" font-family="Times,serif" font-size="14.00">owned_by</text>
</g>
<!-- USER_CAMPAIGN -->
<g id="node5" class="node"><title>USER_CAMPAIGN</title>
<path fill="none" stroke="black" d="M475.177,-301C475.177,-301 368.677,-301 368.677,-301 362.677,-301 356.677,-295 356.677,-289 356.677,-289 356.677,-277 356.677,-277 356.677,-271 362.677,-265 368.677,-265 368.677,-265 475.177,-265 475.177,-265 481.177,-265 487.177,-271 487.177,-277 487.177,-277 487.177,-289 487.177,-289 487.177,-295 481.177,-301 475.177,-301"/>
<text text-anchor="middle" x="421.927" y="-279.3" font-family="Times,serif" font-size="14.00">USER_CAMPAIGN</text>
</g>
<!-- USER_CAMPAIGN&#45;&gt;USER -->
<g id="edge6" class="edge"><title>USER_CAMPAIGN&#45;&gt;USER</title>
<path fill="none" stroke="black" d="M435.846,-264.629C441.233,-256.924 446.837,-247.468 449.927,-238 471.249,-172.661 469.399,-90.5828 466.499,-48.2086"/>
<polygon fill="black" stroke="black" points="469.977,-47.7898 465.732,-38.0826 462.997,-48.3183 469.977,-47.7898"/>
<text text-anchor="middle" x="488.927" y="-143.3" font-family="Times,serif" font-size="14.00">assigns</text>
</g>
<!-- USER_CAMPAIGN&#45;&gt;CAMPAIGN -->
<g id="edge7" class="edge"><title>USER_CAMPAIGN&#45;&gt;CAMPAIGN</title>
<path fill="none" stroke="black" d="M407.725,-264.626C402.182,-256.92 396.347,-247.465 392.927,-238 385.771,-218.193 383.366,-194.472 382.699,-176.356"/>
<polygon fill="black" stroke="black" points="386.194,-176.072 382.483,-166.149 379.196,-176.22 386.194,-176.072"/>
<text text-anchor="middle" x="421.427" y="-226.3" font-family="Times,serif" font-size="14.00">assigns_to</text>
</g>
<!-- SKILL -->
<g id="node6" class="node"><title>SKILL</title>
<path fill="none" stroke="black" d="M89.177,-203.5C89.177,-203.5 36.677,-203.5 36.677,-203.5 30.677,-203.5 24.677,-197.5 24.677,-191.5 24.677,-191.5 24.677,-102.5 24.677,-102.5 24.677,-96.5 30.677,-90.5 36.677,-90.5 36.677,-90.5 89.177,-90.5 89.177,-90.5 95.177,-90.5 101.177,-96.5 101.177,-102.5 101.177,-102.5 101.177,-191.5 101.177,-191.5 101.177,-197.5 95.177,-203.5 89.177,-203.5"/>
<text text-anchor="middle" x="62.927" y="-188.3" font-family="Times,serif" font-size="14.00">SKILL</text>
<text text-anchor="middle" x="62.927" y="-173.3" font-family="Times,serif" font-size="14.00">name</text>
<text text-anchor="middle" x="62.927" y="-158.3" font-family="Times,serif" font-size="14.00">description</text>
<text text-anchor="middle" x="62.927" y="-143.3" font-family="Times,serif" font-size="14.00">attack</text>
<text text-anchor="middle" x="62.927" y="-128.3" font-family="Times,serif" font-size="14.00">defense</text>
<text text-anchor="middle" x="62.927" y="-113.3" font-family="Times,serif" font-size="14.00">advantage</text>
<text text-anchor="middle" x="62.927" y="-98.3" font-family="Times,serif" font-size="14.00">overcome</text>
</g>
<!-- STUNT -->
<g id="node7" class="node"><title>STUNT</title>
<path fill="none" stroke="black" d="M80.427,-309.5C80.427,-309.5 45.427,-309.5 45.427,-309.5 39.427,-309.5 33.427,-303.5 33.427,-297.5 33.427,-297.5 33.427,-268.5 33.427,-268.5 33.427,-262.5 39.427,-256.5 45.427,-256.5 45.427,-256.5 80.427,-256.5 80.427,-256.5 86.427,-256.5 92.427,-262.5 92.427,-268.5 92.427,-268.5 92.427,-297.5 92.427,-297.5 92.427,-303.5 86.427,-309.5 80.427,-309.5"/>
<text text-anchor="middle" x="62.927" y="-294.3" font-family="Times,serif" font-size="14.00">STUNT</text>
<text text-anchor="middle" x="62.927" y="-279.3" font-family="Times,serif" font-size="14.00">name</text>
<text text-anchor="middle" x="62.927" y="-264.3" font-family="Times,serif" font-size="14.00">rules</text>
</g>
<!-- STUNT&#45;&gt;SKILL -->
<g id="edge8" class="edge"><title>STUNT&#45;&gt;SKILL</title>
<path fill="none" stroke="black" d="M62.927,-256.48C62.927,-244.326 62.927,-229.169 62.927,-214.075"/>
<polygon fill="black" stroke="black" points="66.4271,-213.672 62.927,-203.672 59.4271,-213.672 66.4271,-213.672"/>
<text text-anchor="middle" x="74.927" y="-226.3" font-family="Times,serif" font-size="14.00">uses</text>
</g>
<!-- CAMPAIGN_SKILL -->
<g id="node8" class="node"><title>CAMPAIGN_SKILL</title>
<path fill="none" stroke="black" d="M232.927,-301C232.927,-301 122.927,-301 122.927,-301 116.927,-301 110.927,-295 110.927,-289 110.927,-289 110.927,-277 110.927,-277 110.927,-271 116.927,-265 122.927,-265 122.927,-265 232.927,-265 232.927,-265 238.927,-265 244.927,-271 244.927,-277 244.927,-277 244.927,-289 244.927,-289 244.927,-295 238.927,-301 232.927,-301"/>
<text text-anchor="middle" x="177.927" y="-279.3" font-family="Times,serif" font-size="14.00">CAMPAIGN_SKILL</text>
</g>
<!-- CAMPAIGN_SKILL&#45;&gt;CAMPAIGN -->
<g id="edge10" class="edge"><title>CAMPAIGN_SKILL&#45;&gt;CAMPAIGN</title>
<path fill="none" stroke="black" d="M183.54,-264.742C188.606,-251.531 197.228,-233.654 209.927,-222 243.509,-191.181 291.878,-171.974 328.937,-160.876"/>
<polygon fill="black" stroke="black" points="329.945,-164.228 338.583,-158.093 328.005,-157.503 329.945,-164.228"/>
<text text-anchor="middle" x="238.427" y="-226.3" font-family="Times,serif" font-size="14.00">assigns_to</text>
</g>
<!-- CAMPAIGN_SKILL&#45;&gt;SKILL -->
<g id="edge9" class="edge"><title>CAMPAIGN_SKILL&#45;&gt;SKILL</title>
<path fill="none" stroke="black" d="M161.791,-264.599C154.432,-256.573 145.654,-246.877 137.927,-238 128.162,-226.782 117.856,-214.629 108.115,-202.991"/>
<polygon fill="black" stroke="black" points="110.569,-200.47 101.475,-195.034 105.195,-204.955 110.569,-200.47"/>
<text text-anchor="middle" x="157.927" y="-226.3" font-family="Times,serif" font-size="14.00">assigns</text>
</g>
<!-- CAMPAIGN_STUNT -->
<g id="node9" class="node"><title>CAMPAIGN_STUNT</title>
<path fill="none" stroke="black" d="M154.927,-407C154.927,-407 38.927,-407 38.927,-407 32.927,-407 26.927,-401 26.927,-395 26.927,-395 26.927,-383 26.927,-383 26.927,-377 32.927,-371 38.927,-371 38.927,-371 154.927,-371 154.927,-371 160.927,-371 166.927,-377 166.927,-383 166.927,-383 166.927,-395 166.927,-395 166.927,-401 160.927,-407 154.927,-407"/>
<text text-anchor="middle" x="96.927" y="-385.3" font-family="Times,serif" font-size="14.00">CAMPAIGN_STUNT</text>
</g>
<!-- CAMPAIGN_STUNT&#45;&gt;CAMPAIGN -->
<g id="edge12" class="edge"><title>CAMPAIGN_STUNT&#45;&gt;CAMPAIGN</title>
<path fill="none" stroke="black" d="M113.259,-370.905C127.286,-357.239 148.709,-338.662 170.927,-328 204.958,-311.669 222.735,-331.256 253.927,-310 277.763,-293.757 272.483,-278.972 289.927,-256 312.183,-226.69 339.971,-194.982 359.349,-173.556"/>
<polygon fill="black" stroke="black" points="361.944,-175.905 366.082,-166.151 356.765,-171.195 361.944,-175.905"/>
<text text-anchor="middle" x="318.427" y="-279.3" font-family="Times,serif" font-size="14.00">assigns_to</text>
</g>
<!-- CAMPAIGN_STUNT&#45;&gt;STUNT -->
<g id="edge11" class="edge"><title>CAMPAIGN_STUNT&#45;&gt;STUNT</title>
<path fill="none" stroke="black" d="M85.7059,-370.641C81.0967,-362.786 76.1056,-353.213 72.927,-344 70.2629,-336.279 68.2958,-327.747 66.8477,-319.598"/>
<polygon fill="black" stroke="black" points="70.2826,-318.909 65.2776,-309.571 63.3669,-319.993 70.2826,-318.909"/>
<text text-anchor="middle" x="92.927" y="-332.3" font-family="Times,serif" font-size="14.00">assigns</text>
</g>
<!-- CHARACTER_SKILL -->
<g id="node10" class="node"><title>CHARACTER_SKILL</title>
<path fill="none" stroke="black" d="M378.177,-408C378.177,-408 259.677,-408 259.677,-408 253.677,-408 247.677,-402 247.677,-396 247.677,-396 247.677,-382 247.677,-382 247.677,-376 253.677,-370 259.677,-370 259.677,-370 378.177,-370 378.177,-370 384.177,-370 390.177,-376 390.177,-382 390.177,-382 390.177,-396 390.177,-396 390.177,-402 384.177,-408 378.177,-408"/>
<text text-anchor="middle" x="318.927" y="-392.8" font-family="Times,serif" font-size="14.00">CHARACTER_SKILL</text>
<text text-anchor="middle" x="318.927" y="-377.8" font-family="Times,serif" font-size="14.00">rating</text>
</g>
<!-- CHARACTER_SKILL&#45;&gt;CHARACTER -->
<g id="edge14" class="edge"><title>CHARACTER_SKILL&#45;&gt;CHARACTER</title>
<path fill="none" stroke="black" d="M352.415,-369.93C379.925,-355.984 420.344,-337.515 457.927,-328 545.733,-305.77 573.278,-332.841 660.927,-310 665.31,-308.858 669.779,-307.413 674.193,-305.793"/>
<polygon fill="black" stroke="black" points="675.711,-308.956 683.714,-302.014 673.128,-302.45 675.711,-308.956"/>
<text text-anchor="middle" x="483.427" y="-332.3" font-family="Times,serif" font-size="14.00">describes</text>
</g>
<!-- CHARACTER_SKILL&#45;&gt;SKILL -->
<g id="edge13" class="edge"><title>CHARACTER_SKILL&#45;&gt;SKILL</title>
<path fill="none" stroke="black" d="M258.134,-369.92C198.979,-352.331 117.831,-328.213 116.927,-328 94.3077,-322.683 28.8762,-327.788 13.927,-310 -10.0211,-281.504 1.73047,-241.541 19.7144,-208.438"/>
<polygon fill="black" stroke="black" points="22.7596,-210.163 24.6639,-199.741 16.6758,-206.701 22.7596,-210.163"/>
<text text-anchor="middle" x="18.927" y="-279.3" font-family="Times,serif" font-size="14.00">is</text>
</g>
<!-- CHARACTER_STUNT -->
<g id="node11" class="node"><title>CHARACTER_STUNT</title>
<path fill="none" stroke="black" d="M547.177,-407C547.177,-407 422.677,-407 422.677,-407 416.677,-407 410.677,-401 410.677,-395 410.677,-395 410.677,-383 410.677,-383 410.677,-377 416.677,-371 422.677,-371 422.677,-371 547.177,-371 547.177,-371 553.177,-371 559.177,-377 559.177,-383 559.177,-383 559.177,-395 559.177,-395 559.177,-401 553.177,-407 547.177,-407"/>
<text text-anchor="middle" x="484.927" y="-385.3" font-family="Times,serif" font-size="14.00">CHARACTER_STUNT</text>
</g>
<!-- CHARACTER_STUNT&#45;&gt;CHARACTER -->
<g id="edge16" class="edge"><title>CHARACTER_STUNT&#45;&gt;CHARACTER</title>
<path fill="none" stroke="black" d="M493.304,-370.753C501.043,-356.802 513.911,-337.905 530.927,-328 581.337,-298.656 604.862,-326.092 660.927,-310 664.984,-308.836 669.124,-307.439 673.23,-305.905"/>
<polygon fill="black" stroke="black" points="674.711,-309.082 682.699,-302.122 672.114,-302.582 674.711,-309.082"/>
<text text-anchor="middle" x="556.427" y="-332.3" font-family="Times,serif" font-size="14.00">describes</text>
</g>
<!-- CHARACTER_STUNT&#45;&gt;STUNT -->
<g id="edge15" class="edge"><title>CHARACTER_STUNT&#45;&gt;STUNT</title>
<path fill="none" stroke="black" d="M431.983,-370.904C421.114,-367.703 409.701,-364.562 398.927,-362 333.741,-346.499 164.135,-334.895 101.927,-310 101.828,-309.96 101.729,-309.92 101.629,-309.88"/>
<polygon fill="black" stroke="black" points="102.998,-306.655 92.4701,-305.468 99.9605,-312.961 102.998,-306.655"/>
<text text-anchor="middle" x="282.927" y="-332.3" font-family="Times,serif" font-size="14.00">is</text>
</g>
<!-- CHARACTER_ASPECT -->
<g id="node12" class="node"><title>CHARACTER_ASPECT</title>
<path fill="none" stroke="black" d="M1122.18,-407C1122.18,-407 991.677,-407 991.677,-407 985.677,-407 979.677,-401 979.677,-395 979.677,-395 979.677,-383 979.677,-383 979.677,-377 985.677,-371 991.677,-371 991.677,-371 1122.18,-371 1122.18,-371 1128.18,-371 1134.18,-377 1134.18,-383 1134.18,-383 1134.18,-395 1134.18,-395 1134.18,-401 1128.18,-407 1122.18,-407"/>
<text text-anchor="middle" x="1056.93" y="-385.3" font-family="Times,serif" font-size="14.00">CHARACTER_ASPECT</text>
</g>
<!-- CHARACTER_ASPECT&#45;&gt;CHARACTER -->
<g id="edge18" class="edge"><title>CHARACTER_ASPECT&#45;&gt;CHARACTER</title>
<path fill="none" stroke="black" d="M1001.49,-370.943C939.715,-351.935 840.258,-321.333 777.312,-301.965"/>
<polygon fill="black" stroke="black" points="778.121,-298.552 767.534,-298.956 776.063,-305.242 778.121,-298.552"/>
<text text-anchor="middle" x="934.427" y="-332.3" font-family="Times,serif" font-size="14.00">describes</text>
</g>
<!-- CHARACTER_ASPECT&#45;&gt;ASPECT -->
<g id="edge17" class="edge"><title>CHARACTER_ASPECT&#45;&gt;ASPECT</title>
<path fill="none" stroke="black" d="M1055.8,-370.98C1053.41,-344.632 1046.05,-293.137 1023.93,-256 1003.41,-221.555 968.5,-191.611 941.962,-172.047"/>
<polygon fill="black" stroke="black" points="943.827,-169.077 933.669,-166.068 939.733,-174.755 943.827,-169.077"/>
<text text-anchor="middle" x="1050.93" y="-279.3" font-family="Times,serif" font-size="14.00">is</text>
</g>
<!-- CAMPAIGN_ASPECT -->
<g id="node13" class="node"><title>CAMPAIGN_ASPECT</title>
<path fill="none" stroke="black" d="M639.927,-302C639.927,-302 517.927,-302 517.927,-302 511.927,-302 505.927,-296 505.927,-290 505.927,-290 505.927,-276 505.927,-276 505.927,-270 511.927,-264 517.927,-264 517.927,-264 639.927,-264 639.927,-264 645.927,-264 651.927,-270 651.927,-276 651.927,-276 651.927,-290 651.927,-290 651.927,-296 645.927,-302 639.927,-302"/>
<text text-anchor="middle" x="578.927" y="-286.8" font-family="Times,serif" font-size="14.00">CAMPAIGN_ASPECT</text>
<text text-anchor="middle" x="578.927" y="-271.8" font-family="Times,serif" font-size="14.00">trouble</text>
</g>
<!-- CAMPAIGN_ASPECT&#45;&gt;CAMPAIGN -->
<g id="edge20" class="edge"><title>CAMPAIGN_ASPECT&#45;&gt;CAMPAIGN</title>
<path fill="none" stroke="black" d="M540.889,-263.865C512.402,-249.467 473.134,-227.846 441.927,-204 429.945,-194.844 417.693,-183.583 407.482,-173.566"/>
<polygon fill="black" stroke="black" points="409.659,-170.793 400.109,-166.204 404.712,-175.747 409.659,-170.793"/>
<text text-anchor="middle" x="522.427" y="-226.3" font-family="Times,serif" font-size="14.00">has_theme</text>
</g>
<!-- CAMPAIGN_ASPECT&#45;&gt;ASPECT -->
<g id="edge19" class="edge"><title>CAMPAIGN_ASPECT&#45;&gt;ASPECT</title>
<path fill="none" stroke="black" d="M573.553,-263.983C570.802,-250.717 569.861,-233.123 579.927,-222 603.046,-196.453 700.269,-211.37 733.927,-204 778.74,-194.188 828.416,-177.339 862.813,-164.68"/>
<polygon fill="black" stroke="black" points="864.381,-167.831 872.533,-161.064 861.94,-161.27 864.381,-167.831"/>
<text text-anchor="middle" x="584.927" y="-226.3" font-family="Times,serif" font-size="14.00">is</text>
</g>
<!-- PLACE -->
<g id="node14" class="node"><title>PLACE</title>
<path fill="none" stroke="black" d="M713.177,-415.5C713.177,-415.5 660.677,-415.5 660.677,-415.5 654.677,-415.5 648.677,-409.5 648.677,-403.5 648.677,-403.5 648.677,-374.5 648.677,-374.5 648.677,-368.5 654.677,-362.5 660.677,-362.5 660.677,-362.5 713.177,-362.5 713.177,-362.5 719.177,-362.5 725.177,-368.5 725.177,-374.5 725.177,-374.5 725.177,-403.5 725.177,-403.5 725.177,-409.5 719.177,-415.5 713.177,-415.5"/>
<text text-anchor="middle" x="686.927" y="-400.3" font-family="Times,serif" font-size="14.00">PLACE</text>
<text text-anchor="middle" x="686.927" y="-385.3" font-family="Times,serif" font-size="14.00">name</text>
<text text-anchor="middle" x="686.927" y="-370.3" font-family="Times,serif" font-size="14.00">description</text>
</g>
<!-- PLACE&#45;&gt;CHARACTER -->
<g id="edge21" class="edge"><title>PLACE&#45;&gt;CHARACTER</title>
<path fill="none" stroke="black" d="M684.661,-362.347C684.495,-351.508 685.366,-338.897 688.927,-328 690.925,-321.887 694.052,-315.847 697.547,-310.292"/>
<polygon fill="black" stroke="black" points="700.452,-312.245 703.233,-302.021 694.684,-308.279 700.452,-312.245"/>
<text text-anchor="middle" x="712.927" y="-332.3" font-family="Times,serif" font-size="14.00">has_face</text>
</g>
<!-- PLACE&#45;&gt;ASPECT -->
<g id="edge22" class="edge"><title>PLACE&#45;&gt;ASPECT</title>
<path fill="none" stroke="black" d="M725.316,-376.276C746.105,-368.886 771.615,-358.066 791.927,-344 845.173,-307.127 863.447,-296.169 891.927,-238 901.343,-218.767 904.715,-194.698 905.802,-176.29"/>
<polygon fill="black" stroke="black" points="909.304,-176.318 906.207,-166.186 902.309,-176.038 909.304,-176.318"/>
<text text-anchor="middle" x="915.427" y="-279.3" font-family="Times,serif" font-size="14.00">has_concept</text>
</g>
<!-- PLACE&#45;&gt;PLACE -->
<g id="edge23" class="edge"><title>PLACE&#45;&gt;PLACE</title>
<path fill="none" stroke="black" d="M725.402,-398.649C735.393,-398.056 742.927,-394.84 742.927,-389 742.927,-385.35 739.984,-382.725 735.338,-381.125"/>
<polygon fill="black" stroke="black" points="735.862,-377.663 725.402,-379.351 734.631,-384.554 735.862,-377.663"/>
<text text-anchor="middle" x="756.427" y="-385.3" font-family="Times,serif" font-size="14.00">is_in</text>
</g>
<!-- PLACE_ASPECT -->
<g id="node15" class="node"><title>PLACE_ASPECT</title>
<path fill="none" stroke="black" d="M1015.43,-505C1015.43,-505 924.427,-505 924.427,-505 918.427,-505 912.427,-499 912.427,-493 912.427,-493 912.427,-481 912.427,-481 912.427,-475 918.427,-469 924.427,-469 924.427,-469 1015.43,-469 1015.43,-469 1021.43,-469 1027.43,-475 1027.43,-481 1027.43,-481 1027.43,-493 1027.43,-493 1027.43,-499 1021.43,-505 1015.43,-505"/>
<text text-anchor="middle" x="969.927" y="-483.3" font-family="Times,serif" font-size="14.00">PLACE_ASPECT</text>
</g>
<!-- PLACE_ASPECT&#45;&gt;ASPECT -->
<g id="edge24" class="edge"><title>PLACE_ASPECT&#45;&gt;ASPECT</title>
<path fill="none" stroke="black" d="M1027.83,-479.246C1067.5,-471.269 1117.39,-453.881 1142.93,-416 1156.34,-396.1 1150.75,-384.688 1142.93,-362 1110.58,-268.229 1007.67,-200.996 948.642,-169.013"/>
<polygon fill="black" stroke="black" points="950.034,-165.789 939.562,-164.184 946.747,-171.97 950.034,-165.789"/>
<text text-anchor="middle" x="1140.93" y="-332.3" font-family="Times,serif" font-size="14.00">is</text>
</g>
<!-- PLACE_ASPECT&#45;&gt;PLACE -->
<g id="edge25" class="edge"><title>PLACE_ASPECT&#45;&gt;PLACE</title>
<path fill="none" stroke="black" d="M919.658,-468.948C867.432,-451.232 786.301,-423.71 734.931,-406.284"/>
<polygon fill="black" stroke="black" points="735.979,-402.944 725.385,-403.046 733.73,-409.573 735.979,-402.944"/>
<text text-anchor="middle" x="888.427" y="-438.3" font-family="Times,serif" font-size="14.00">describes</text>
</g>
<!-- PLACE_CHARACTER -->
<g id="node16" class="node"><title>PLACE_CHARACTER</title>
<path fill="none" stroke="black" d="M688.927,-506C688.927,-506 564.927,-506 564.927,-506 558.927,-506 552.927,-500 552.927,-494 552.927,-494 552.927,-480 552.927,-480 552.927,-474 558.927,-468 564.927,-468 564.927,-468 688.927,-468 688.927,-468 694.927,-468 700.927,-474 700.927,-480 700.927,-480 700.927,-494 700.927,-494 700.927,-500 694.927,-506 688.927,-506"/>
<text text-anchor="middle" x="626.927" y="-490.8" font-family="Times,serif" font-size="14.00">PLACE_CHARACTER</text>
<text text-anchor="middle" x="626.927" y="-475.8" font-family="Times,serif" font-size="14.00">relation</text>
</g>
<!-- PLACE_CHARACTER&#45;&gt;CHARACTER -->
<g id="edge26" class="edge"><title>PLACE_CHARACTER&#45;&gt;CHARACTER</title>
<path fill="none" stroke="black" d="M616.777,-467.642C604.301,-442.403 586.872,-396.23 604.927,-362 612.962,-346.766 647.871,-324.071 676.966,-307.083"/>
<polygon fill="black" stroke="black" points="678.855,-310.034 685.773,-302.009 675.361,-303.969 678.855,-310.034"/>
<text text-anchor="middle" x="621.927" y="-385.3" font-family="Times,serif" font-size="14.00">owner</text>
</g>
<!-- PLACE_CHARACTER&#45;&gt;PLACE -->
<g id="edge27" class="edge"><title>PLACE_CHARACTER&#45;&gt;PLACE</title>
<path fill="none" stroke="black" d="M638.212,-467.943C645.859,-455.709 656.206,-439.154 665.398,-424.447"/>
<polygon fill="black" stroke="black" points="668.605,-425.919 670.937,-415.584 662.669,-422.209 668.605,-425.919"/>
<text text-anchor="middle" x="674.427" y="-438.3" font-family="Times,serif" font-size="14.00">target</text>
</g>
<!-- CHARACTER_RELATION -->
<g id="node17" class="node"><title>CHARACTER_RELATION</title>
<path fill="none" stroke="black" d="M949.177,-415.5C949.177,-415.5 800.677,-415.5 800.677,-415.5 794.677,-415.5 788.677,-409.5 788.677,-403.5 788.677,-403.5 788.677,-374.5 788.677,-374.5 788.677,-368.5 794.677,-362.5 800.677,-362.5 800.677,-362.5 949.177,-362.5 949.177,-362.5 955.177,-362.5 961.177,-368.5 961.177,-374.5 961.177,-374.5 961.177,-403.5 961.177,-403.5 961.177,-409.5 955.177,-415.5 949.177,-415.5"/>
<text text-anchor="middle" x="874.927" y="-400.3" font-family="Times,serif" font-size="14.00">CHARACTER_RELATION</text>
<text text-anchor="middle" x="874.927" y="-385.3" font-family="Times,serif" font-size="14.00">rating</text>
<text text-anchor="middle" x="874.927" y="-370.3" font-family="Times,serif" font-size="14.00">description</text>
</g>
<!-- CHARACTER_RELATION&#45;&gt;CHARACTER -->
<g id="edge28" class="edge"><title>CHARACTER_RELATION&#45;&gt;CHARACTER</title>
<path fill="none" stroke="black" d="M842.003,-362.368C827.513,-351.414 810.132,-338.711 793.927,-328 783.195,-320.906 771.297,-313.66 760.198,-307.148"/>
<polygon fill="black" stroke="black" points="761.912,-304.096 751.507,-302.1 758.396,-310.149 761.912,-304.096"/>
<text text-anchor="middle" x="833.927" y="-332.3" font-family="Times,serif" font-size="14.00">owner</text>
</g>
<!-- CHARACTER_RELATION&#45;&gt;CHARACTER -->
<g id="edge29" class="edge"><title>CHARACTER_RELATION&#45;&gt;CHARACTER</title>
<path fill="none" stroke="black" d="M788.927,-362.439C778.252,-357.281 767.94,-351.18 758.927,-344 747.878,-335.198 738.798,-322.499 732.098,-311.048"/>
<polygon fill="black" stroke="black" points="735.132,-309.302 727.243,-302.231 729,-312.679 735.132,-309.302"/>
<text text-anchor="middle" x="774.427" y="-332.3" font-family="Times,serif" font-size="14.00">target</text>
</g>
<!-- CHARACTER_RELATION&#45;&gt;ASPECT -->
<g id="edge30" class="edge"><title>CHARACTER_RELATION&#45;&gt;ASPECT</title>
<path fill="none" stroke="black" d="M931.863,-362.326C938.272,-357.159 943.924,-351.086 947.927,-344 978.825,-289.299 945.26,-214.279 922.783,-174.799"/>
<polygon fill="black" stroke="black" points="925.709,-172.871 917.629,-166.018 919.672,-176.414 925.709,-172.871"/>
<text text-anchor="middle" x="990.427" y="-279.3" font-family="Times,serif" font-size="14.00">has_aspect</text>
</g>
</g>
</svg>
